<?xml version="1.0" encoding="UTF-8"?>
<svg width="34px" height="34px" viewBox="0 0 34 34" version="1.1" xmlns="http://www.w3.org/2000/svg" xmlns:xlink="http://www.w3.org/1999/xlink">
    <!-- Generator: sketchtool 44.1 (41455) - http://www.bohemiancoding.com/sketch -->
    <title>21F2C5F4-058D-464B-8D87-6E9984C8A609</title>
    <desc>Created with sketchtool.</desc>
    <defs></defs>
    <g id="Search---instances" stroke="none" stroke-width="1" fill="none" fill-rule="evenodd">
        <g id="Top-navigation-+-search-icon" transform="translate(-1526.000000, -11.000000)" fill="#FFFFFF">
            <g id="Top-nav@1440---logged-out" transform="translate(167.000000, 0.000000)">
                <g id="Parents" transform="translate(1029.000000, 0.000000)">
                    <g id="search" transform="translate(315.000000, 0.000000)">
                        <g id="icon/search" transform="translate(15.000000, 11.000000)">
                            <path d="M20.59856,4.02696 L20.59856,4.02696 C24.4305867,4.02696 27.88544,6.33442667 29.35152,9.87586667 C30.8176,13.4159467 30.0065867,17.4905067 27.2974667,20.20008 C24.5878933,22.9092 20.5133333,23.7202133 16.9732533,22.2541333 C13.4336267,20.7876 11.1243467,17.3327467 11.1243467,13.50072 C11.1243467,8.26789333 15.3657333,4.02696 20.59856,4.02696 L20.59856,4.02696 Z M20.59856,0.09928 L20.59856,0.09928 C14.2251467,0.102906667 8.73573333,4.59362667 7.46957333,10.8410133 C6.20341333,17.0884 9.51093333,23.3625333 15.3816,25.8472533 C22.1779733,28.63072 29.9481067,25.4256533 32.8081867,18.6610133 C35.6664533,11.89456 32.5497867,4.08906667 25.8150667,1.15464 C24.1649333,0.455146667 22.3905867,0.0974666667 20.59856,0.09928 Z" id="Fill-1"></path>
                            <path d="M0.494133333,30.6281067 L6.95413333,24.1717333 C7.61645333,23.51304 8.68768,23.51304 9.35,24.1717333 L9.7308,24.5525333 C10.3894933,25.2148533 10.3894933,26.28608 9.7308,26.9484 L3.2708,33.4052267 C2.60848,34.06392 1.53725333,34.06392 0.874933333,33.4052267 L0.494133333,33.0244267 C-0.16456,32.3621067 -0.16456,31.29224 0.494133333,30.6281067 Z" id="Fill-2"></path>
                        </g>
                    </g>
                </g>
            </g>
        </g>
    </g>
</svg>